<?xml version="1.0" encoding="utf-8"?>
<!-- Generator: Adobe Illustrator 26.2.0, SVG Export Plug-In . SVG Version: 6.00 Build 0)  -->
<svg version="1.1"
	 id="svg2" xmlns:cc="http://creativecommons.org/ns#" xmlns:dc="http://purl.org/dc/elements/1.1/" xmlns:inkscape="http://www.inkscape.org/namespaces/inkscape" xmlns:rdf="http://www.w3.org/1999/02/22-rdf-syntax-ns#" xmlns:sodipodi="http://sodipodi.sourceforge.net/DTD/sodipodi-0.dtd" xmlns:svg="http://www.w3.org/2000/svg"
	 xmlns="http://www.w3.org/2000/svg" xmlns:xlink="http://www.w3.org/1999/xlink" x="0px" y="0px" viewBox="0 0 425.2 425.2"
	 style="enable-background:new 0 0 425.2 425.2;" xml:space="preserve">
<style type="text/css">
	.st0{clip-path:url(#SVGID_00000054973277673385700760000014363650933041336210_);}
	.st1{fill:#FFFFFF;}
</style>
<defs>
	
		<inkscape:perspective  id="perspective9" inkscape:persp3d-origin="372.04724 : 350.78739 : 1" inkscape:vp_x="0 : 526.18109 : 1" inkscape:vp_y="0 : 1000 : 0" inkscape:vp_z="744.09448 : 526.18109 : 1" sodipodi:type="inkscape:persp3d">
		</inkscape:perspective>
</defs>
<sodipodi:namedview  bordercolor="#666666" borderopacity="1.0" gridtolerance="10.0" guidetolerance="10.0" id="base" inkscape:current-layer="g11" inkscape:cx="212.60001" inkscape:cy="212.60001" inkscape:pageopacity="0.0" inkscape:pageshadow="2" inkscape:window-height="952" inkscape:window-width="1280" inkscape:window-x="-4" inkscape:window-y="-4" inkscape:zoom="1.0865475" objecttolerance="10.0" pagecolor="#ffffff" showgrid="false">
	</sodipodi:namedview>
<g id="g11" transform="matrix(1.25,0,0,-1.25,0,425.2)" inkscape:groupmode="layer" inkscape:label="revision_o">
	<g id="g13">
		<g>
			<defs>
				<rect id="SVGID_1_" x="-42.5" y="-42.5" width="425.2" height="425.2"/>
			</defs>
			<clipPath id="SVGID_00000059273330570746548260000011957877027368024462_">
				<use xlink:href="#SVGID_1_"  style="overflow:visible;"/>
			</clipPath>
			<g id="g15" style="clip-path:url(#SVGID_00000059273330570746548260000011957877027368024462_);">
				<g id="g21" transform="translate(124.9907,107.1152)">
					<path id="path23" class="st1" d="M0,0c-15.9,10.9-26.3,26.6-30.8,43.9l12.6,3.3c-1.7,6.4-2.3,13.1-1.9,19.7l18.9-1.2
						c0.2,3.9,1,7.7,2.3,11.5l-17.9,6.1c1.8,5.3,4.4,10.5,7.7,15.4c2,2.9,4.2,5.5,6.5,8l-9.4,9c4.7,5,10,9.2,15.7,12.6l6.7-11.1
						c11.6,7,25.1,10.1,38.6,8.9l-1.8-18.8c7.3-0.7,14.5-3.1,20.9-7.5c1.9-1.3,3.6-2.7,5.2-4.2l12.9,13.8c4.6-4.3,8.5-9.2,11.6-14.5
						l11.3,6.5c2.8-4.9,5.1-10.1,6.8-15.5l-12.4-3.9c4.7-14.9,3.8-31.5-3.3-46.2c-5.9,2.9-11.7,5.6-17,8.2c-1-2-2.1-4-3.4-5.9
						c-5.3-7.7-12.5-13.2-20.6-16.3L65.9,4c-8.2-3.2-17-4.6-25.7-4.2l-0.6-13C25.9-12.6,12.2-8.3,0,0 M93.8,137.1
						c-41,28-96.9,17.5-124.9-23.5c-28-41-17.5-96.9,23.4-124.9c41-28,96.9-17.5,124.9,23.5C145.2,53.2,134.7,109.1,93.8,137.1"/>
				</g>
				<g id="g25" transform="translate(160.0527,158.4053)">
					<path id="path27" class="st1" d="M0,0c-6.4,4.4-8.1,13.2-3.7,19.7c4.4,6.5,13.2,8.1,19.7,3.7c6.5-4.4,8.1-13.2,3.7-19.7
						C15.3-2.8,6.5-4.4,0,0 M32.2-4.9c9.2,13.4,5.7,31.6-7.7,40.8C11.2,45-7.1,41.6-16.2,28.2c-5.8-8.5-6.5-19-2.9-27.8L-40-8.3
						c3.7-9,10-17,18.7-22.9c6.7-4.6,14-7.4,21.5-8.5l3.4,22.4C14.4-18.9,25.6-14.5,32.2-4.9"/>
				</g>
				<g id="g29" transform="translate(291.7168,132.8506)">
					<path id="path31" class="st1" d="M0,0c-3.6-11.9-8.9-23.4-16-34.1L-29.7-25c-4.1-6.2-8.8-12-14.3-17.4l11.6-11.6
						c-14.3-14.3-31.1-24.5-49-30.7l-5.4,15.6c-16.9-5.8-34.9-7.5-52.4-5.1l-2.3-16.4c-19.9,2.7-39.2,10.2-56.3,22.2l9.5,13.5
						c-5.3,3.7-10.3,7.9-15,12.6c-25.2,25.2-35.9,59.5-32.2,92.5l-16.4,1.9c3.2,28,15.5,55.2,37,76.6c11.2,11.2,24,20,37.7,26.2
						l6.8-15c14.4,6.5,29.8,9.9,45.4,10.1l-0.2,16.5c14,0.2,28.1-1.9,41.5-6.3l-5.1-15.7c6.7-2.1,13.2-4.9,19.4-8.4l7.9,14.4
						c10.5-5.7,20.3-13,29.2-21.9C-7.4,103.6,5.2,71,5.4,38.3l-16.5-0.1c0.1-11.3-1.5-22.5-4.7-33.4L0,0z M-9.8,149.6
						c-10.5,10.5-22.1,19.1-34.5,25.8l-5.8-10.5c-56.3,32.6-129.6,24.8-177.8-23.4c-57.5-57.5-57.5-150.8,0-208.4
						c0.4-0.4,0.8-0.8,1.2-1.2c-2.2-2.2-4.4-4.4-6.6-6.5l16.6-14.2c2,2.4,3.9,4.8,5.8,7.2C-153.1-124-71.6-119.1-19.5-67
						c30.2,30.2,44.5,70.3,43,109.9L34.8,43C34.5,81.6,19.7,120.1-9.8,149.6"/>
				</g>
			</g>
		</g>
	</g>
</g>
</svg>
